<?xml version="1.0" encoding="utf-8"?>
<!-- Generator: Adobe Illustrator 26.3.1, SVG Export Plug-In . SVG Version: 6.00 Build 0)  -->
<svg version="1.1" id="Layer_2_00000019666901135012079460000005764341612619615385_"
	 xmlns="http://www.w3.org/2000/svg" xmlns:xlink="http://www.w3.org/1999/xlink" x="0px" y="0px" viewBox="0 0 281.2 371.9"
	 style="enable-background:new 0 0 281.2 371.9;" xml:space="preserve">
<style type="text/css">
	.st0{fill:#D71921;}
	.st1{clip-path:url(#SVGID_00000097476071205633237910000001212068474973679506_);}
	.st2{fill:#FFFFFF;}
</style>
<g id="Layer_1-2">
	<g>
		<rect class="st0" width="281.2" height="371.9"/>
		<g>
			<defs>
				<rect id="SVGID_1_" width="281.2" height="371.9"/>
			</defs>
			<clipPath id="SVGID_00000181047557949271906240000016962262292072648381_">
				<use xlink:href="#SVGID_1_"  style="overflow:visible;"/>
			</clipPath>
			<g style="clip-path:url(#SVGID_00000181047557949271906240000016962262292072648381_);">
				<path class="st2" d="M146.9,98.4c0.8-0.8,9-8,9.8-9c1.1-1.3,3.8-4.5,3.8-9.5c0-1.2,0-25.5,0-26.6c0-4,1.8-6.2,2.8-7.3
					c1-1.1,4.1-3.8,4.9-4.5l-2.6,0c-0.7,0.7-9.7,8.8-10.6,9.6c-1.3,1.2-3.1,4.4-3.1,8.9v27.7c0,2.3-0.8,4.5-2.2,5.7
					c-0.7,0.7-5.2,4.7-5.5,5L146.9,98.4L146.9,98.4z M170.6,115.9c-0.4-0.4-3.4-3.2-3.4-3.2v11c0,0,3.2,3.3,3.9,4
					c3,3.2,3,8.9-6.5,18.2c-1.7,1.6-6.4,6.1-12.9,6.1h-16.9l10.1,8.8h6.7c6.8,0,13.1-2.9,17.2-7.1c4.1-4.1,5.7-9.7,5.7-14.9v-14.4
					C174.5,119.5,171.4,116.7,170.6,115.9 M184.6,92.8c-3.2,0-10.2,6.7-10.2,6.7l-2.7-2.9v5.4c0,0-3.2,3-5.6,3h-5.5v-5.5
					c0-2.5,1.1-5.4,2.2-6.6c0.9-1,5.1-4.7,5.4-5l-2.6,0c-1,0.8-9.5,8.6-10.6,9.8c-1.9,2.2-3,6.2-3.1,7.3c0,0-38.9,0-39.9,0
					c-4.9,0-8.2-4.8-8.2-9.1c0-0.5,0.1-10.2,0.1-10.2c0-8.3-2.2-9.2-2.6-9.4H98c2.3,1.2,3.7,4.9,3.7,7.2c0,1.7,0,12.6,0,13.7
					c0.1,3.6,2.7,17.3,15,17.3H152c0,0,0.1,21.6,0.1,22.6c0,3.6-1.2,5.8-2.2,6.9c-0.9,0.9-5.7,5.1-5.7,5.1h2.6
					c1.3-1.2,8.7-7.9,9.7-8.7c2.1-1.9,4.2-4.4,4.2-11.3v-14.4c0,0,3.1-3.3,4.1-4.1c0.9-0.8,7-6.6,7-6.6c0,8.2,5.7,9.7,9,6.5
					c1.3-1.2,5.4-5,6.4-5.9C189.9,101.6,191.6,92.8,184.6,92.8 M179.8,105.1c-1.1-0.9-4-4.2-4-4.2c4.1-2.7,6.5-1.1,7-0.2
					C185.2,104.7,183.6,108.1,179.8,105.1 M133.1,126.7c0-2.8-1.8-3.8-6.3-8.3l-6.7,6.7c4.6,4.6,6.1,6.9,6.6,9
					C127,133.8,133.1,128.7,133.1,126.7 M114.8,99.2h18.7c1.2,0,2.7-0.2,4.2-1.5c0.8-0.7,5.8-5.8,6.2-6.3c1-1.1,1.4-2.2,1.4-3.6
					v-7.1c0-6.9-5.4-12.3-5.4-12.3s1.1-0.8,1.2-3.8c0-0.8,0-7.3,0-7.3s2.2,2.1,2.4,3c0,0,3.9-4,3.9-4c1.6-1.8-1.2-5.4-2.5-6.8
					c-3.9-3.9-3.9-8-3.9-8s-4.6,4.5-4.6,4.6c-1.8,2-1.3,5.7,2.5,9.5v9.4c0,0.8-0.8,1.7-0.8,1.7s-5.4-4.9-10.4-4.9h-7.5
					c-4.8,0-8.6,4.3-9,4.7c-2.5,2.5-2.6,7.2-0.5,9.3c1,1,5.2,5.2,5.2,5.2s-1.3-8.5,0-14.2c0.4-1.8,3.3-3.5,5.7-1.9
					c4.2,2.8,10.1,8.4,10.1,8.4S118,87.5,117.4,88c-0.5,0.5-2.5,2-4.3,2c-2.4,0-3.3-1.3-4.3-2.4c0,0,0,6.4,0,6.9
					C108.8,96.9,111.8,99.2,114.8,99.2 M121.3,87.1c0.4-0.4,12-12.4,12-12.4s6.6,6.8,8.8,10.5c1,1.8,2.2,5.3-3.5,5.3h-21.1
					C119.2,89.5,119.5,89.1,121.3,87.1 M140.9,143.7c1.9-2.1,3.9-3.9,3.9-9.5v-5.5c0-4.8-2.8-6.7-4.1-8.1c-0.9-0.8-3.2-3.1-3.2-3.1
					v11.3c0,0,2.3,2.5,3.3,3.3c4.7,3.8,1,10.3-3.5,10.3c-0.9,0-18.9,0-20.1,0c-7.7,0-17.4-6.4-17.4-17.5v-9.2c0-9.4-2.6-9.4-2.6-9.4
					h-3.5c0,0,3.7,2,3.7,7.3v16.8c0,10.9,9,21.1,20,21.1h9.2c5.5,0,7.4-1.3,10.8-4.3C138.7,146.1,140.3,144.4,140.9,143.7
					 M119.4,126.8c0-2.8-1.9-3.8-6.4-8.3l-6.8,6.7c4.6,4.6,6.2,6.9,6.6,9C113.2,133.8,119.4,128.7,119.4,126.8"/>
				<path class="st2" d="M109.8,199.2V180c0-7.6-5.7-10.1-10.4-10.1c-6.1,0-8.3,4.4-9.3,6.9c-1.4-4.8-6.2-7-10.2-7
					c-7.4,0-9.3,7.1-9.3,7.1s-0.2-6.8-6.2-6.8l-5.8,0c0,0,3.4,1.4,3.4,7.3v21.9c0,7.3,2.9,7.3,2.9,7.3h9.7c-0.3,0-3.8-2.7-3.8-7.4
					v-19.4c0,0,0.9-3.8,5.7-3.8c3,0,5,2.4,5,5.2v18c0,7.3,2.9,7.3,2.9,7.3h9.7c0,0-3.7-2.6-3.7-7.4l0-19.4c0,0,1.1-3.7,5.3-3.7
					c2.9,0,5.3,2.4,5.2,5.2c0,0,0,16.5,0,18c0.1,7.4,2.9,7.3,2.9,7.3c5.1,0,9.8,0,9.8,0S109.8,204,109.8,199.2 M126.6,199.2l0-21.1
					c0-8.2-4.3-8.2-6.4-8.2h-5.8c0,0,3.4,1.5,3.4,7.2v22c0,7,2.9,7.3,2.9,7.3c5.1,0,9.7,0,9.7,0S126.6,204.2,126.6,199.2
					 M146.4,177.5c3.2-2,7.6-1.5,10.1,1.5v-6.2c0,0-0.9-2.6-5-2.6c-6.1,0-7.6,7.2-7.6,7.2c-0.5-5.7-2-7.4-6.2-7.4h-5.9
					c0,0,3.4,1.4,3.4,7.3l-0.1,21.9c0,7.1,2.9,7.3,2.9,7.3h9.6c0,0-3.7-2.3-3.7-7.4v-17.9C144,181.2,144.3,178.8,146.4,177.5
					 M201.4,174.1c3.5,0,5.8,1.5,5.8,1.5V170h-8.1v-8.4c0,0-1.9,3.5-6.3,7.1c-3,2.5-8.7,5.4-8.7,5.4h6.1v25.4c0,6.6,2.9,7,2.9,7
					c5.3,0,9.6,0,9.6,0s-3.7-2.5-3.7-7.1v-25.4L201.4,174.1 M230.8,185.1c7.2-7.5,1.8-15.4-8-15.3c-9.9,0-15.3,9.3-15.3,19.2
					s6.5,17.5,15.9,17.5c7.3,0,10.4-2.6,10.4-2.6l0-6.4c-3.9,6.8-9.9,4.8-11.3,4.2c-4.2-2-4.8-7.6-4.8-7.6
					C221.1,189.9,225.4,190.8,230.8,185.1 M217.2,190.1c0,0-1.2-16.9,5.1-17.3c5.5-0.4,4.2,7.1,2.6,10.1
					C222.4,187.3,219.2,187.8,217.2,190.1 M122.2,167c2.5,0,4.5-1.9,4.5-4.4s-2-4.4-4.5-4.4s-4.4,2-4.4,4.4S119.7,167,122.2,167
					 M257.9,188.2c-2.3-2.9-6.3-5.1-9.6-7c-4.4-2.5-3.8-8,2.6-7.5c4.8,0.4,6.8,5,6.8,5v-6.1c0,0-3.7-2.9-9.3-2.9s-10.8,3.8-10.8,8.7
					c0,4.3,1.9,7.2,5.4,9.7c1.4,1.1,3.1,2.1,5,3.1c2.9,1.6,3.9,3.5,3.9,5.3c0.1,2.6-2.2,6-7.1,6s-7-5.2-7-5.2l0,6.5
					c0,0,3.6,2.6,9.2,2.6c6.6,0,13-4.7,13-12C260.2,192.1,259.2,190,257.9,188.2 M180.9,199.3v-20.1c0-6.4-5.4-9.3-11.2-9.3
					s-9.1,2.7-9.1,2.7v6.4c0,0,2.3-5,7-5c4.2,0,5.4,2,5.4,4.1c0,3.6-3.1,5.2-5,6c-5.8,2.5-13.2,5.3-13.2,13.7c0,5.6,4.1,8.8,9.8,8.8
					c4.8,0,7.4-3.7,7.7-4.4c0.5,3.9,2.7,4.3,2.7,4.3c5.1,0,9.7,0,9.7,0S180.9,204.5,180.9,199.3 M172.1,200.3c0,0-1.4,2.1-4.4,2.1
					s-5.1-1.6-5.1-5.1c0-8.2,7.5-9.9,9.5-12.4V200.3L172.1,200.3z M48.8,201.6H38c-2.8,0-3.4-2-3.4-5.1v-15.7c0,0,8.1,0,8.2,0
					c4.9,0,7.2,1.6,7.2,1.6s-2.1-6.2-10.4-6.2h-4.9v-5c0-4.2-1.1-5.6-1.1-5.6h9.4c10.2,0,13.6,3.2,13.6,3.2s-1-8.1-12.9-8.1H20.3
					c0,0,3.9,3.1,3.9,10.5l0,28c0,7.1,3,7.4,3,7.4h22.9c3.5,0,7.1-2,7.1-5.7v-2.7C57.3,198.2,55.6,201.6,48.8,201.6"/>
				<rect x="21.7" y="218.6" class="st2" width="237" height="2.4"/>
				<path class="st2" d="M76.8,276.5c1.2,0,3.5,0.1,5.4,4.7l6.7,17.2c0,0,1.1,2.8,3.7,4.2H86c-1.6,0-3.2-4.1-3.2-4.1l-2.1-5.4h-8.9
					l-2.1,5.3h0c0,0-1.2,3.1,0.4,4.2h-4.3c-1.6,0,0-4.2,0-4.2l7-17.8c0,0,1.3-3.3-0.2-4.1L76.8,276.5L76.8,276.5z M76.2,281.7
					l-3.4,8.7h6.8C79.6,290.5,76.2,281.7,76.2,281.7z"/>
				<path class="st2" d="M101.8,283.4c-3.1,0-4.8,4.5-4.8,9c0,5.6,2.6,8.4,5.2,8.4c1.1,0,2.9-0.5,4.1-2.1v3.5c0,0-1.8,1-5.9,1
					c-5.6,0-9-4.4-9-10.3s3.8-11.3,10-11.3c3,0,4.9,1.1,4.9,1.1v3.6C106.5,286.1,104.9,283.4,101.8,283.4"/>
				<path class="st2" d="M120.5,302.6c-1.2-0.2-1.5-2.5-1.5-2.5c-0.6,1.2-2.3,2.8-4.8,2.8s-4.6-0.9-5.2-3.9
					c-0.8-4.1,1.6-6.3,4.3-7.7c3-1.5,6-2.5,6-5.5c0-1.4-0.8-2.2-2.9-2.2c-2.6,0-4.1,3.2-4.1,3.2v-3.7c0,0,1.7-1.9,5.2-1.9
					s6.4,1.9,6.4,5.4v11.7c0,0,0,2.7,2.1,4.1L120.5,302.6L120.5,302.6z M118.8,290.4c-1.1,1.4-5.6,2.4-5.6,7.6
					c0,1.4,0.9,2.6,2.1,2.6c2.2,0,3-1.1,3.4-1.5C118.8,299.1,118.8,290.4,118.8,290.4z"/>
				<path class="st2" d="M136.2,303c-5.2,0-8.9-5.1-8.9-10.1c0-6.9,3.9-11.5,8.7-11.5c0,0,2.4,0,3.4,1.6v-2.3c0,0,0-3.3-1.9-4.1h3.3
					c1.2,0,3.6,0,3.6,4.6v17.6h0C142.3,303,136.2,303,136.2,303 M139.5,286.4c-1.1-3.1-3.5-3.1-3.5-3.1c-3.1,0-3.2,5.6-3.2,9.5
					c0,2.2,0.2,7.6,4.8,7.6c0,0,1,0,1.9-0.9V286.4z"/>
				<path class="st2" d="M163.5,301.4c-1.5,1.7-6.1,1.7-6.1,1.7c-5.6,0-9.4-4.4-9.4-10.3s3.1-11.2,9-11.2c5.7,0,8.8,4.6,4.7,9
					c-3.1,3.3-5.7,2.8-7.7,5.2c0.3,3.3,2.9,4.4,2.9,4.4c1.2,0.6,4.4,1.7,6.6-2.2L163.5,301.4L163.5,301.4z M156.7,283.4
					c0,0-3.7,0.3-3,10c1.2-1.3,3.1-1.6,4.5-4.2C159.2,287.4,159.9,283.1,156.7,283.4"/>
				<path class="st2" d="M190.9,302.6c-1.6,0-1.6-4.2-1.6-4.2s0-0.9,0-10.2c0-1.6-1.4-3.3-3-3.3c-2.1,0-2.8,1.8-3,2.4v11
					c0,0,0,2.8,2.1,4.2h-5.5c-1.6,0-1.6-4.2-1.6-4.2l0-10.6c0-1.6-1.5-3-2.8-3c-2.4,0-3,2.3-3.2,2.9v10.6c0,2.7,1.9,4.1,2.1,4.2
					h-5.5c-1.7,0-1.7-4.2-1.7-4.2V286c0,0,0-3.4-2-4.2h3.3c0,0,3.6-0.1,3.6,3.9c1.4-4.2,4.3-4.4,5.6-4.4c2.2,0,4.6,1.6,5.4,4.3
					c0.4-1,1.9-4.3,5.4-4.3c2.6,0,5.8,1.5,5.8,5.9v11.2c0,0,0,2.7,2.1,4.2L190.9,302.6L190.9,302.6z"/>
				<path class="st2" d="M213,304.6c0,0-0.7,3.3-2.9,4.3h-5.6c3-1.6,3.9-5.5,3.9-5.5s0.2-0.7,0.2-1c-0.6,0.6-2,0.6-2,0.6
					c-2.6,0-5.2-0.9-6.2-5.5c-2.4-11.6-2.4-11.7-2.4-11.7s-0.7-3-2.4-4.1h4.1c1.1,0,2.5,0.9,3.2,4.1c0,0,0.1,0.9,2.5,10.7
					c0.4,1.7,1.1,4.8,2.9,4.8c0,0,0.3,0,0.7-0.5c3-14.9,3-15,3-15s0.7-3.4-0.6-4.1h3.5c1.1,0,2.6,1,2.1,4.2
					C216.9,286.9,213.9,300.9,213,304.6"/>
				<path class="st2" d="M43,240.9c-1.2-0.8-2.6-1.4-4.2-1.6c-1-0.2-2.6-0.3-4.8-0.3h-4c0.4,0.6,0.7,1.7,0.7,3.2v1.7
					c0,0.3,0,0.7,0,1.1h3c1.3,0,2.5,0.4,3.7,1.2c0.9,0.7,1.5,1.5,1.9,2.4c-0.7-0.6-2-1-4-1h-4.7v10.8c0,0.6,0,1.1,0.2,1.5
					c0.3,1.1,1,1.9,1.8,2.4H27c-1-0.1-1.6-1.5-1.7-4.1v-16c0-0.8-0.1-1.6-0.3-2.2c-0.4-1.7-1-2.9-2-3.8h12.7
					c1.3,0.1,2.5,0.3,3.5,0.6C41.5,237.6,42.8,238.9,43,240.9"/>
				<path class="st2" d="M104.6,262.3h-5.5c-1,0-1.6-1.4-1.6-4.2c0-1.1,0-4.7,0-10.6c0-0.8-0.3-1.5-0.9-2.1
					c-0.6-0.6-1.3-0.9-2.2-0.9c-0.4,0-0.8,0.1-1.1,0.2c-0.8,0.3-1.4,0.9-1.9,1.7v11.6c0,0.5,0.2,1.1,0.3,1.6c0.3,1.2,0.9,2,1.8,2.6
					H88c-1,0-1.6-1.4-1.7-4.1v-17.8c0-0.6-0.1-1.2-0.2-1.8c-0.3-1.2-0.9-2-1.6-2.4h3.3c2.4,0,3.6,1.6,3.6,4.7v3.8
					c1.1-2.4,2.8-3.6,5.3-3.6c1.6,0,2.9,0.4,3.9,1.1c1.3,0.9,1.9,2.4,1.9,4.4v11.5c0,0.6,0.1,1.1,0.2,1.6
					C103.1,260.8,103.7,261.7,104.6,262.3"/>
				<path class="st2" d="M46.9,262.3c-1.7,0-1.7-4.1-1.7-4.1v-17.8c0,0,0-3.3-1.9-4.1h3.3c1.2,0,3.6-0.1,3.6,4.6v17.2h0
					c0,0,0,2.7,2.1,4.1L46.9,262.3L46.9,262.3z"/>
				<path class="st2" d="M109.7,262.2c-1.7,0-1.7-4-1.7-4v-14.4l-3.5,0c3.3-1.6,4.9-2.9,4.9-2.9s2.4-2,3.7-4.1v4.6h4.6l0,3.2
					c-1.4-0.7-3.2-0.7-3.2-0.7c-0.9,0,0.1-0.1-1.3-0.1v14.4c0,0,0,2.7,2.1,4L109.7,262.2L109.7,262.2z"/>
				<path class="st2" d="M57.6,239.9c-1.4,0-2.5-1.1-2.5-2.5s1.1-2.5,2.5-2.5s2.5,1.1,2.5,2.5S59,239.9,57.6,239.9 M56.8,262.3
					c-1.7,0-1.7-4.1-1.7-4.1v-12.6c0,0,0-3.3-1.9-4.1h3.3c1.2,0,3.6,0,3.6,4.6v12h0c0,0,0,2.7,2.1,4.1H56.8L56.8,262.3z"/>
				<path class="st2" d="M77.9,241.5h4.4c-1.1,0.9-1.1,3.3-1.1,3.3v13.2c0,3.2,0.4,8.1-3.3,10.4h-5.6c3.2-2.1,4.1-5.2,4.1-7.8
					c0,0.2-0.6,2-3.4,2c-5.3,0-8.9-4.3-8.9-10.2c0-6.9,3.8-11.4,8.7-11.4c0,0,2.5,0,3.7,2.1C76.8,241.5,77.9,241.5,77.9,241.5
					 M74.4,260.4c0,0,1.4,0,1.9-1.1v-12.9c-1.1-3.3-3.5-3.3-3.5-3.3c-3.2,0-3.4,5.7-3.4,9.6S70.9,260.4,74.4,260.4"/>
				<path class="st2" d="M179.7,239.9c-1.4,0-2.5-1.1-2.5-2.5s1.1-2.5,2.5-2.5s2.6,1.1,2.6,2.5S181.1,239.9,179.7,239.9
					 M178.9,262.3c-1.7,0-1.7-4.1-1.7-4.1l0,0v-12.6c0,0,0-3.3-1.9-4.1h3.3c1.2,0,3.6,0,3.6,4.6v12h0c0,0,0,2.7,2.1,4.1H178.9z"/>
				<path class="st2" d="M251,241.5h4.4c-1.1,0.9-1.1,3.3-1.1,3.3V258c0,3.2,0.4,8.1-3.3,10.4h-5.6c3.2-2.1,4.1-5.2,4.1-7.8
					c0,0.2-0.6,2-3.4,2c-5.3,0-8.9-4.3-8.9-10.2c0-6.9,3.8-11.4,8.7-11.4c0,0,2.5,0,3.7,2.1C249.9,241.5,251,241.5,251,241.5
					 M247.5,260.3c0,0,1.4,0,1.9-1.1v-12.9c-1.1-3.3-3.5-3.3-3.5-3.3c-3.1,0-3.4,5.7-3.4,9.7S244,260.3,247.5,260.3"/>
				<path class="st2" d="M203.1,247.5V258c0,0,0,2.8,2.1,4.2h-5.5c-1.7,0-1.7-4.2-1.7-4.2l0-10.6c0-1.6-1.4-3-2.8-3
					c-2.4,0-3,2.3-3.2,2.9V258c0,2.7,2,4.1,2.1,4.2h-5.5c-1.7,0-1.7-4.2-1.7-4.2v-12.4c0,0-0.1-3.3-2.1-4.2h3.3c0,0,3.7-0.1,3.7,3.9
					c1.4-4.2,4.3-4.2,5.6-4.2C202,241.1,203.1,245,203.1,247.5"/>
				<path class="st2" d="M152.9,245.6c1.8-1.1,4.3-0.9,5.8,0.8v-3.5c0,0-0.5-1.5-2.9-1.5c-3.5,0-4.3,4.1-4.3,4.1
					c-0.3-3.2-1.2-4-3.6-4h-3.4c0,0,2,0.8,2,4.2l0,12.4c0,4.1,1.7,4.2,1.7,4.2h5.6c0,0-2.1-1.4-2.1-4.2l0-10.3
					C151.5,247.7,151.7,246.3,152.9,245.6"/>
				<path class="st2" d="M133.5,262.2c-1.6,0-2.2-1.5-2.2-3.9l0-16.2c0-1.1-0.2-2.1-0.4-2.9h-0.1c-3.8,0-6.9-1-7.5-3.7
					c1.9,0.7,5.1,0.7,5.1,0.7h9.5c3.5,0,6.4,0.8,7.2,3.6c-1.8-0.7-5.1-0.7-5.1-0.7h-3.2c0,0,0.6,0.9,0.6,3.1v16.2
					c0,2.9,2.1,3.9,2.1,3.9H133.5L133.5,262.2z"/>
				<path class="st2" d="M172.4,258.1v-11.5c0-3.6-3.1-5.3-6.4-5.3s-5.2,1.6-5.2,1.6v3.6c0,0,1.3-2.9,4-2.9c2.4,0,3.1,1.2,3.1,2.4
					c0,2-1.7,3-2.9,3.5c-3.3,1.4-7.5,3-7.5,7.9c0,3.2,2.3,5,5.6,5c2.8,0,4.2-2.1,4.4-2.5c0.3,2.2,1.6,2.4,1.6,2.4c2.9,0,5.6,0,5.6,0
					S172.4,261.1,172.4,258.1 M167.3,258.7c0,0-0.8,1.2-2.5,1.2s-2.9-0.9-2.9-2.9c0-4.7,4.3-5.7,5.4-7.1L167.3,258.7L167.3,258.7z"
					/>
				<path class="st2" d="M210.4,239.9c-1.4,0-2.5-1.1-2.5-2.5s1.1-2.5,2.5-2.5s2.6,1.1,2.6,2.5S211.8,239.9,210.4,239.9
					 M209.6,262.3c-1.7,0-1.7-4.1-1.7-4.1l0,0v-12.6c0,0,0-3.3-1.9-4.1h3.3c1.2,0,3.6,0,3.6,4.6v12h0c0,0,0,2.7,2.1,4.1H209.6
					L209.6,262.3z"/>
				<path class="st2" d="M233.8,247.5V258c0,0,0,2.8,2.1,4.2h-5.5c-1.6,0-1.6-4.2-1.6-4.2l0-10.6c0-1.6-1.5-3-2.8-3
					c-2.3,0-3,2.3-3.2,2.9V258c0,2.7,1.9,4.1,2.1,4.2h-5.5c-1.7,0-1.7-4.2-1.7-4.2v-12.4c0,0-0.1-3.3-2.1-4.2h3.3
					c0,0,3.7-0.1,3.7,3.9c1.4-4.2,4.3-4.2,5.6-4.2C232.7,241.1,233.8,245,233.8,247.5"/>
			</g>
		</g>
	</g>
</g>
</svg>
